/* XPM */
static char *result[] = {
/* columns rows colors chars-per-pixel */
"64 64 6 1 ",
"  c white",
". c black",
"X c #0088CC",
"o c #B3E5FF",
"O c #1AB2FF",
"+ c #66CCFF",
/* pixels */
"                                                                ",
"                                                                ",
"                                                                ",
"                                                                ",
"                             ...                                ",
"                            .X.o.                               ",
"                           .XX.oo.                              ",
"                          .XXX.ooo.                             ",
"                         .XXXX.oooo.                            ",
"                        .XXXXX.ooooo.                           ",
"                       .XXXXXX.oooooo.                          ",
"                      .XXXXXXX.ooooooo.                         ",
"                     .XXXXXXXX.oooooooo.                        ",
"                    .XXXXXXXXX.ooooooooo.                       ",
"                   .XXXXXXXXXX.oooooooooo.                      ",
"                  .XXXXXXXXXXX.ooooooooooo.                     ",
"                 .XXXXXXXXXXXX.oooooooooooo.                    ",
"                .XXXXXXXXXXXXX.ooooooooooooo.                   ",
"               ..XXXXXXXXXXXXX.ooooooooooooo..                  ",
"              .OO.XXXXXXXXXXXX.oooooooooooo.XX.                 ",
"             .OOOO.XXXXXXXXXXX.ooooooooooo.XXXX.                ",
"            .OOOOOO.XXXXXXXXXX.oooooooooo.XXXXXX.               ",
"           .OOOOOOOO.XXXXXXXXX.ooooooooo.XXXXXXXX.              ",
"          .OOOOOOOOOO.XXXXXXXX.oooooooo.XXXXXXXXXX.             ",
"         .OOOOOOOOOOOO.XXXXXXX.ooooooo.XXXXXXXXXXXX.            ",
"        .OOOOOOOOOOOOOO.XXXXXX.oooooo.XXXXXXXXXXXXXX.           ",
"       .OOOOOOOOOOOOOOOO.XXXXX.ooooo.XXXXXXXXXXXXXXXX.          ",
"      .OOOOOOOOOOOOOOOOOO.XXXX.oooo.XXXXXXXXXXXXXXXXXX.         ",
"     .OOOOOOOOOOOOOOOOOOOO.XXX.ooo.XXXXXXXXXXXXXXXXXXXX.        ",
"    .OOOOOOOOOOOOOOOOOOOOOO.XX.oo.XXXXXXXXXXXXXXXXXXXXXX.       ",
"   .OOOOOOOOOOOOOOOOOOOOOOOO.X.o.XXXXXXXXXXXXXXXXXXXXXXXX.      ",
"   .OOOOOOOOOOOOOOOOOOOOOOOOO...XXXXXXXXXXXXXXXXXXXXXXXXXX.     ",
"   ...........................O............................     ",
"   .ooooooooooooooooooooooooo...OOOOOOOOOOOOOOOOOOOOOOOOOO.     ",
"    .ooooooooooooooooooooooo.X.+.OOOOOOOOOOOOOOOOOOOOOOOO.      ",
"     .ooooooooooooooooooooo.XX.++.OOOOOOOOOOOOOOOOOOOOOO.       ",
"      .ooooooooooooooooooo.XXX.+++.OOOOOOOOOOOOOOOOOOOO.        ",
"       .ooooooooooooooooo.XXXX.++++.OOOOOOOOOOOOOOOOOO.         ",
"        .ooooooooooooooo.XXXXX.+++++.OOOOOOOOOOOOOOOO.          ",
"         .ooooooooooooo.XXXXXX.++++++.OOOOOOOOOOOOOO.           ",
"          .ooooooooooo.XXXXXXX.+++++++.OOOOOOOOOOOO.            ",
"           .ooooooooo.XXXXXXXX.++++++++.OOOOOOOOOO.             ",
"            .ooooooo.XXXXXXXXX.+++++++++.OOOOOOOO.              ",
"             .ooooo.XXXXXXXXXX.++++++++++.OOOOOO.               ",
"              .ooo.XXXXXXXXXXX.+++++++++++.OOOO.                ",
"               ...XXXXXXXXXXXX.++++++++++++.OO.                 ",
"                ..XXXXXXXXXXXX.+++++++++++++..                  ",
"                 .XXXXXXXXXXXX.+++++++++++++.                   ",
"                  .XXXXXXXXXXX.++++++++++++.                    ",
"                   .XXXXXXXXXX.+++++++++++.                     ",
"                    .XXXXXXXXX.++++++++++.                      ",
"                     .XXXXXXXX.+++++++++.                       ",
"                      .XXXXXXX.++++++++.                        ",
"                       .XXXXXX.+++++++.                         ",
"                        .XXXXX.++++++.                          ",
"                         .XXXX.+++++.                           ",
"                          .XXX.++++.                            ",
"                           .XX.+++.                             ",
"                            .X.++.                              ",
"                             ....                               ",
"                                                                ",
"                                                                ",
"                                                                ",
"                                                                "
};
