/* XPM */
static char *_a4288074be742dafc57fed5fdc82dfasMRpZSlZxCWj1Uaa[] = {
/* columns rows colors chars-per-pixel */
"64 64 6 1 ",
"  c #EAC32A",
". c white",
"X c black",
"o c #5B3B1D",
"O c #04CE1F",
"+ c #AD4632",
/* pixels */
"                                                                ",
"                                                                ",
"                                                                ",
"                                                                ",
"                 ................................               ",
"                 ................................               ",
"                 .XXXXXXXXXXXXXXXXXXXXXXXXXXXXXX.               ",
"                 .XXXX.XXX....XXX....XXX....XXXX.               ",
"                 .XXXX.XXXXXX.XXXXXX.XXXXXX.XXXX.               ",
"                 .XXXX.XXXXXX.XXXXXX.XXXXXX.XXXX.               ",
"                 .XXXX.XXX....XXX....XXXX...XXXX.             oo",
"                 .XXXX.XXXXXX.XXXXXX.XXXXXX.XXXX.             oo",
"                 .XXXX.XXXXXX.XXXXXX.XXXXXX.XXXX.             oo",
"                 .XXXX.XXX....XXX....XXXXXX.XXXX.             oo",
"                 .XXXXXXXXXXXXXXXXXXXXXXXXXXXXXX.             oo",
"                 ................................             oo",
"                 .                              .             oo",
"                 .     OOOO OOOO OOOO O   O     .             oo",
"                 .     O  O O  O O    OO  O     .               ",
"                 .     O  O OOOO OOOO O O O     .               ",
"                 .     O  O O    O    O  OO     .               ",
"                 .     OOOO O    OOOO O   O     .               ",
"                 .                              .               ",
"                 ................................               ",
"                                                                ",
"                                                                ",
"                                                                ",
"                                                                ",
"                                                                ",
"                                                                ",
"                                                                ",
"                                                                ",
"                                                                ",
"                                                                ",
"     +++                                                        ",
"     +.....                                                     ",
"     +++                                                        ",
"     +++                                                        ",
"     +.+                                                        ",
"     +++                                                        ",
"     +++                                                        ",
"     +++                                                        ",
"     +++                                                        ",
"     +++                                                        ",
"                                                                ",
"                                                                ",
"                                                                ",
"                                                                ",
"                                                              oo",
"                                                              oo",
"                                                              oo",
"                                                              oo",
"                                                              oo",
"                                                              oo",
"                                                              oo",
"                                                              oo",
"                                                                ",
"                                                                ",
"                                                                ",
"                                                                ",
"                                                                ",
"                                                                ",
"                                                                ",
"                                                                "
};
