/* XPM */
static char *_a26634a1d424a9f8bf511520f27eb9cK8lEInrAEcdkspRc[] = {
/* columns rows colors chars-per-pixel */
"64 64 5 1 ",
"  c #EAC32A",
". c white",
"X c black",
"o c #5B3B1D",
"O c #AD4632",
/* pixels */
"                                                                ",
"                                                                ",
"                                                                ",
"                                                                ",
"                 ................................               ",
"                 ................................               ",
"                 XXXXXXXXXXXXXXXXXXXXXXXXXXXXXXXX               ",
"                 XXXXX.XXX....XXX....XXX....XXXXX               ",
"                 XXXXX.XXXXXX.XXXXXX.XXXXXX.XXXXX               ",
"                 XXXXX.XXXXXX.XXXXXX.XXXXXX.XXXXX               ",
"                 XXXXX.XXX....XXX....XXXX...XXXXX             oo",
"                 XXXXX.XXXXXX.XXXXXX.XXXXXX.XXXXX             oo",
"                 XXXXX.XXXXXX.XXXXXX.XXXXXX.XXXXX             oo",
"                 XXXXX.XXX....XXX....XXXXXX.XXXXX             oo",
"                 XXXXXXXXXXXXXXXXXXXXXXXXXXXXXXXX             oo",
"                 XXXXXXXXXXXXXXXXXXXXXXXXXXXXXXXX             oo",
"                                                              oo",
"                                                              oo",
"                                                                ",
"                                                                ",
"                                                                ",
"                                                                ",
"                                                                ",
"                                                                ",
"                                                                ",
"                                                                ",
"                                                                ",
"                                                                ",
"        OOO                                                     ",
"        O.....                                                  ",
"        OOO                                                     ",
"        OOO                                                     ",
"        O.O                                                     ",
"        OOO                                                     ",
"        OOO                                                     ",
"        OOO                                                     ",
"        OOO                                                     ",
"        OOO                                                     ",
"                                                                ",
"                                                                ",
"                                                                ",
"                                                                ",
"                                                                ",
"                                                                ",
"                                                                ",
"                                                                ",
"                                                                ",
"                                                                ",
"                                                              oo",
"                                                              oo",
"                                                              oo",
"                                                              oo",
"                                                              oo",
"                                                              oo",
"                                                              oo",
"                                                              oo",
"                                                                ",
"                                                                ",
"                                                                ",
"                                                                ",
"                                                                ",
"                                                                ",
"                                                                ",
"                                                                "
};
