/* XPM */
static char *e18cb2a1daef4a109465160d2215fc13mPP2vVyZzxjLRORb[] = {
/* columns rows colors chars-per-pixel */
"64 64 2 1 ",
"  c #5B3B1D",
". c #AD4632",
/* pixels */
"                                                                ",
"                                                                ",
"                                                                ",
"                                                                ",
"                                                                ",
"     .................     ................................     ",
"     .................     ................................     ",
"     .................     ................................     ",
"     .................     ................................     ",
"     .................     ................................     ",
"     .................     ................................     ",
"     .................     ................................     ",
"     .................     ................................     ",
"     .................     ................................     ",
"                                                                ",
"                                                                ",
"                                                                ",
"                                                                ",
"                                                                ",
"     .......     .........................     ............     ",
"     .......     .........................     ............     ",
"     .......     .........................     ............     ",
"     .......     .........................     ............     ",
"     .......     .........................     ............     ",
"     .......     .........................     ............     ",
"     .......     .........................     ............     ",
"     .......     .........................     ............     ",
"     .......     .........................     ............     ",
"                                                                ",
"                                                                ",
"                                                                ",
"                                                                ",
"                                                                ",
"     ....................     .............................     ",
"     ....................     .............................     ",
"     ....................     .............................     ",
"     ....................     .............................     ",
"     ....................     .............................     ",
"     ....................     .............................     ",
"     ....................     .............................     ",
"     ....................     .............................     ",
"     ....................     .............................     ",
"     ....................     .............................     ",
"                                                                ",
"                                                                ",
"                                                                ",
"                                                                ",
"                                                                ",
"     ............     ................     ................     ",
"     ............     ................     ................     ",
"     ............     ................     ................     ",
"     ............     ................     ................     ",
"     ............     ................     ................     ",
"     ............     ................     ................     ",
"     ............     ................     ................     ",
"     ............     ................     ................     ",
"     ............     ................     ................     ",
"     ............     ................     ................     ",
"     ............     ................     ................     ",
"                                                                ",
"                                                                ",
"                                                                ",
"                                                                ",
"                                                                "
};
